# xmcd
#
# Track frame offsets:
#	150
#	19328
#	33557
#	60982
#	81796
#	91480
#	139247
#	152839
#	163069
#	175516
#	185315
#	199366
#	214073
#	229003
#	244499
#	271681
#	283555
#	316373
#
# Disc length: 4464 seconds
#
# Revision: 0
# Processed by: cddbd v1.5.2PL0 Copyright (c) Steve Scherf et al.
# Submitted via: EasyCDDAExtractor 16.0.6.1
#
DISCID=fa116e12
DTITLE=Συλλογικός δίσκος - Τα μελοποιημένα 10
DYEAR=2010
DGENRE=Έντεχνη
TTITLE0=Μητσιάς Μανώλης - Μαρίνα [Μ. Θεοδωράκης-Ο. Ελύτης]
TTITLE1=Κουμιώτη Ρένα - Δώσε μου το στόμα σου [Μ. Πλέσσας-Λ. Παπαδόπουλος]
TTITLE2=Στόκας Μπάμπης - Δε λες κουβέντα [Δ. Μούτσης-Κ. Τριπολίτης]
TTITLE3=Δημητριάδη Μαρία - Αν η μισή μου καρδιά [Θ. Μικρούτσικος-Ν. Χικμέτ, απ
TTITLE3=Γ.Ρίτσος]
TTITLE4=Χωματά Καίτη-Βιολάρης Μ.-χορωδία - Άσπρα καράβια [Γ. Σπανός-Σ. Σκίπης]
TTITLE5=Αρβανιτάκη Ελευθερία-Μπακιρτζής Αργ.-χ. δήμ. Γλυκών Νερών - Ερωτικός λ
TTITLE5=όγος [Α. Μπακιρτζής-Γ. Σεφέρης]
TTITLE6=Γιοβάννα - Λιόγερμα [Σ. Μεντής-Γ. Ρίτσος]
TTITLE7=Αρλέτα - Είναι αλήθεια (Αχ τι τραβώ)[Α. Τριανταφύλλου-F.F.Lorca, απ.Κ.
TTITLE7=Πολίτης]
TTITLE8=Ψαριανός Δημήτρης-Στασινοπούλου Κρίστη - Αν μάς ρωτήσουν οι ουρανοί [Χ
TTITLE8=Γκάρτζος-P. Neruda, απ. Λ.Παπαδ/λος]
TTITLE9=Μούτσιος Γιώργος - Ελένη [Δ. Μούτσης-Α. Αγγελάκης]
TTITLE10=Μοσχολιού Βίκυ - Τι να φταίει [Γ. Ζαμπέτας-Δ. Χριστοδούλου]
TTITLE11=Ξυδάκης Νίκος-Γλυκερία - Όταν [Ν. Ξυδάκης-Ερ. Χάϊνε, απ. Αγγ. Βλάχος]
TTITLE12=Μεγαβάτης - Τεμπελιά [Τ. Ανδρούτσος-Γ. Σουρής]
TTITLE13=Βενετσάνου Νένα - Φεύγω τ' αλόγου την ορμή [Ν. Βενετσάνου-Δ. Σολωμός]
TTITLE14=Βελισσαρίου Ρένα-Θωμόπουλος Γιάννης - Σιωπή! [Σ. Κασσάρας-Γ. Σκαρίμπα
TTITLE14=ς]
TTITLE15=Καραγιάννης Κώστας-χορωδία - Άφκιαστο κι αστόλιστο [Β. Αρχιτεκτονίδης
TTITLE15=Κ. Παλαμάς]
TTITLE16=Άβατον - Ταις έμαις εταίραις [Ν.Γράψας/Ι.Παπαδάκης/Π.Ξυδιάς-Σαπφώ]
TTITLE17=Σαχτούρης Μίλτος - Το πρωΐ και το βράδυ [Μ. Σιγανίδης-Μ. Σαχτούρης]
EXTD=
EXTT0=
EXTT1=
EXTT2=
EXTT3=
EXTT4=
EXTT5=
EXTT6=
EXTT7=
EXTT8=
EXTT9=
EXTT10=
EXTT11=
EXTT12=
EXTT13=
EXTT14=
EXTT15=
EXTT16=
EXTT17=
PLAYORDER=
